<svg xmlns="http://www.w3.org/2000/svg" viewBox="0 0 200 200">
  <defs>
    <radialGradient id="bg" cx="50%" cy="35%" r="75%">
      <stop offset="0%" stop-color="#1a2338"/>
      <stop offset="100%" stop-color="#0b1220"/>
    </radialGradient>
  </defs>
  <circle cx="100" cy="100" r="100" fill="url(#bg)"/>
  <circle cx="100" cy="100" r="97" fill="none" stroke="#A855F7" stroke-width="3" opacity="0.55"/>
  <!-- jersey / shoulders -->
  <path d="M35 190 C35 140 62 118 100 118 C138 118 165 140 165 190 Z" fill="#A855F7"/>
  <path d="M35 190 C35 140 62 118 100 118 C138 118 165 140 165 190 Z" fill="none" stroke="#ffffff" stroke-opacity="0.15" stroke-width="2"/>
  <!-- collar -->
  <path d="M84 122 L100 138 L116 122" fill="none" stroke="#ffffff" stroke-width="4" stroke-linecap="round" stroke-linejoin="round" opacity="0.85"/>
  <!-- number -->
  <text x="100" y="178" font-family="Arial, sans-serif" font-size="26" font-weight="700" fill="#ffffff" fill-opacity="0.9" text-anchor="middle">23</text>
  <!-- neck -->
  <rect x="88" y="98" width="24" height="26" rx="8" fill="#C68A5C"/>
  <!-- head -->
  <circle cx="100" cy="76" r="34" fill="#C68A5C"/>
  <!-- simple hair cap -->
  <path d="M66 72 C66 46 132 44 134 70 C126 60 108 54 100 54 C90 54 74 60 66 72 Z" fill="#20263a"/>
  <!-- eyes -->
  <circle cx="88" cy="78" r="3.2" fill="#0F172A"/>
  <circle cx="112" cy="78" r="3.2" fill="#0F172A"/>
</svg>
